<?xml version="1.0" encoding="UTF-8" standalone="no"?>
<!DOCTYPE svg PUBLIC "-//W3C//DTD SVG 1.1//EN" "http://www.w3.org/Graphics/SVG/1.1/DTD/svg11.dtd">
<svg width="100%" height="100%" viewBox="0 0 365 638" version="1.1" xmlns="http://www.w3.org/2000/svg" xmlns:xlink="http://www.w3.org/1999/xlink" xml:space="preserve" xmlns:serif="http://www.serif.com/" style="fill-rule:evenodd;clip-rule:evenodd;stroke-linejoin:round;stroke-miterlimit:2;">
    <g id="character" transform="matrix(0.971835,0,0,0.968977,-236.578,-204.733)">
        <rect x="243.435" y="211.288" width="374.874" height="657.429" style="fill:none;"/>
        <g transform="matrix(0.985841,0.29569,-0.223786,0.750517,121.356,48.6643)">
            <path d="M259.659,538.777C259.807,572.008 270.101,606.385 285.294,604.666C300.486,602.947 285.594,565.529 278.671,551.854C272.793,540.242 259.512,505.547 259.659,538.777Z" style="fill:rgb(165,160,151);"/>
        </g>
        <g transform="matrix(1.02774,0.050758,-0.0369702,0.752986,33.3942,85.7749)">
            <path d="M260.317,419.401C261.955,450.65 247.472,555.095 241.41,554.606C235.348,554.117 221.807,439.607 223.945,416.468C226.763,385.975 258.646,387.527 260.317,419.401Z" style="fill:rgb(165,160,151);"/>
        </g>
        <g transform="matrix(1.01862,-0.146107,0.0968043,0.678879,199.719,186.116)">
            <path d="M260.317,419.401C261.955,450.65 247.472,555.095 241.41,554.606C235.348,554.117 221.807,439.607 223.945,416.468C226.763,385.975 258.646,387.527 260.317,419.401Z" style="fill:rgb(165,160,151);"/>
        </g>
        <g transform="matrix(1.02898,0,0,1.03202,-17.4719,-27.516)">
            <path d="M334.603,471.199C343.785,458.947 357.474,450.073 373.659,447.259L374.199,447.165C393.378,443.829 412.338,446.86 428.773,454.845C408.449,452.939 374.49,452.791 334.603,471.199Z" style="fill:rgb(17,95,59);"/>
        </g>
        <g transform="matrix(1.02898,0,0,1.03202,-17.4719,-27.516)">
            <path d="M428.773,454.845C450.451,465.378 467.735,484.531 475.326,509.063L559.78,781.997L482.178,780.784L405.325,522.523C404.771,520.662 402.883,519.537 400.982,519.936C399.082,520.334 397.805,522.123 398.046,524.05L430.039,780.178L352.438,781.391L322.582,515.372C320.751,499.059 325.427,483.442 334.603,471.199C374.49,452.791 408.449,452.939 428.773,454.845Z" style="fill:url(#_Linear1);"/>
        </g>
        <g transform="matrix(1.02898,0,0,1.03202,-17.4719,-27.516)">
            <g transform="matrix(1,0,0,0.956618,0,33.8507)">
                <path d="M365.337,795.449C365.826,791.325 365.403,786.642 363.728,781.159C366.048,780.954 372.579,780.793 380.494,780.668L423.636,792.728L423.829,795.449L365.337,795.449Z" style="fill:rgb(204,255,0);"/>
            </g>
            <g transform="matrix(1,0,0,0.956618,0,33.8507)">
                <path d="M423.829,795.449L428.132,855.98L337.561,854.779C335.778,854.756 334.099,853.901 332.982,852.449C331.865,850.996 331.428,849.098 331.789,847.274C336.378,823.034 362.832,816.586 365.337,795.449L423.829,795.449Z" style="fill:rgb(78,97,0);"/>
            </g>
            <g transform="matrix(1,0,0,0.956618,0,33.8507)">
                <path d="M380.494,780.668C398.171,780.39 422.752,780.292 422.752,780.292L423.636,792.728L380.494,780.668Z" style="fill:rgb(45,56,0);"/>
            </g>
            <g transform="matrix(1,0,0,1.55129,-1.40806,-469.403)">
                <path d="M434.459,855.104C434.459,857.111 431.931,858.741 428.816,858.741L334.966,858.741C331.852,858.741 329.323,857.111 329.323,855.104C329.323,853.096 331.852,851.466 334.966,851.466L428.816,851.466C431.931,851.466 434.459,853.096 434.459,855.104Z" style="fill:rgb(175,163,255);"/>
            </g>
        </g>
        <g transform="matrix(-1.02898,0,0,1.03202,946.672,-27.516)">
            <g transform="matrix(1,0,0,0.956618,0,33.8507)">
                <path d="M411.463,780.57C427.976,780.366 446.689,780.292 446.689,780.292L443.627,792.781L411.463,780.57Z" style="fill:rgb(45,56,0);"/>
            </g>
            <g transform="matrix(1,0,0,0.956618,0,33.8507)">
                <path d="M382.476,795.449C385.369,791.287 387.275,786.623 387.666,781.159C390.645,780.896 400.576,780.705 411.463,780.57L443.627,792.781L442.972,795.449L382.476,795.449Z" style="fill:rgb(204,255,0);"/>
            </g>
            <g transform="matrix(1,0,0,0.956618,0,33.8507)">
                <path d="M442.972,795.449L428.132,855.98L337.665,854.78C335.842,854.757 334.129,853.863 333.014,852.355C331.9,850.847 331.506,848.888 331.944,847.039C337.559,822.448 369.675,813.864 382.476,795.449L442.972,795.449Z" style="fill:rgb(78,97,0);"/>
            </g>
            <g transform="matrix(1,0,0,1.55129,-1.40806,-469.403)">
                <path d="M434.459,855.104C434.459,857.111 431.931,858.741 428.816,858.741L334.966,858.741C331.852,858.741 329.323,857.111 329.323,855.104C329.323,853.096 331.852,851.466 334.966,851.466L428.816,851.466C431.931,851.466 434.459,853.096 434.459,855.104Z" style="fill:rgb(175,163,255);"/>
            </g>
        </g>
        <g transform="matrix(1.02898,0,0,1.03202,-42.7869,-87.2359)">
            <circle cx="413.759" cy="329.638" r="33.86" style="fill:rgb(165,160,151);"/>
        </g>
        <g transform="matrix(1.02174,0.122183,-0.105357,0.886243,32.3402,-36.4478)">
            <path d="M357.419,330.727L422.517,330.727C403.051,347.71 378.259,338.45 357.419,330.727Z" style="fill:rgb(131,112,255);"/>
        </g>
        <g transform="matrix(1.02174,0.122183,-0.105357,0.886243,32.3402,-36.4478)">
            <path d="M265.97,394.638C269.64,358.668 296.129,330.727 328.217,330.727L357.419,330.727C378.259,338.45 403.051,347.71 422.517,330.727L441.258,330.727C469.712,330.727 493.764,352.699 501.405,382.757L519.295,447.286L489.301,449.736C477.799,465.593 460.539,475.682 441.258,475.682L328.217,475.682C310.257,475.682 294.051,466.929 282.619,452.914L257.205,451.46L265.97,394.638Z" style="fill:rgb(175,163,255);"/>
        </g>
        <g transform="matrix(-0.985841,0.29569,0.223786,0.750517,639.351,62.507)">
            <path d="M259.659,538.777C259.807,572.008 270.101,606.385 285.294,604.666C300.486,602.947 285.594,565.529 278.671,551.854C272.793,540.242 259.512,505.547 259.659,538.777Z" style="fill:rgb(165,160,151);"/>
        </g>
        <g transform="matrix(1.52041,0,0,1.5249,-197.703,-172.104)">
            <path d="M394.35,278.746C394.35,285.611 388.777,291.184 381.912,291.184C375.048,291.184 369.475,285.611 369.475,278.746L394.35,278.746Z" style="fill:white;"/>
        </g>
    </g>
    <defs>
        <linearGradient id="_Linear1" x1="0" y1="0" x2="1" y2="0" gradientUnits="userSpaceOnUse" gradientTransform="matrix(30.0502,270.357,-270.357,30.0502,363.728,477.111)"><stop offset="0" style="stop-color:rgb(96,227,166);stop-opacity:1"/><stop offset="1" style="stop-color:rgb(5,202,110);stop-opacity:1"/></linearGradient>
    </defs>
</svg>
